<svg width="18" height="18" viewBox="0 0 18 18" fill="none" xmlns="http://www.w3.org/2000/svg">
<path d="M6.12647 14.8231C8.52516 15.9366 11.459 15.5071 13.4388 13.52C15.9671 10.9831 15.9713 6.86682 13.4388 4.32507C10.9105 1.78894 6.80319 1.78894 4.27491 4.32507C2.29517 6.31222 1.86644 9.25532 2.97681 11.6621C3.11901 12.0185 3.2297 12.3046 3.2297 12.5822C3.2297 13.3582 2.48362 14.3192 2.981 14.8183C3.47839 15.3173 4.43604 14.5687 5.20524 14.5645C5.48126 14.5645 5.77199 14.6797 6.12647 14.8231Z" stroke="white" stroke-width="1.44" stroke-linecap="round" stroke-linejoin="round"/>
<path d="M8.69486 11.7028L8.69904 11.7282" stroke="white" stroke-width="1.44" stroke-linecap="round" stroke-linejoin="round"/>
<path d="M8.69522 10.0845C8.68752 9.49337 9.22349 9.2431 9.62208 9.01464C10.1076 8.74615 10.4368 8.31804 10.4368 7.72476C10.4368 6.84544 9.72785 6.13971 8.85708 6.13971C7.9807 6.13971 7.27733 6.84544 7.27733 7.72476" stroke="white" stroke-width="1.44" stroke-linecap="round" stroke-linejoin="round"/>
</svg>
