<svg width="77" height="27" viewBox="0 0 77 27" fill="none" xmlns="http://www.w3.org/2000/svg">
<path d="M8.26202 27C5.74184 27 3.7283 26.2961 2.22139 24.8883C0.740464 23.4804 0 21.5824 0 19.1941V7.80586C0 5.44274 0.740464 3.55726 2.22139 2.14944C3.7283 0.71648 5.74184 0 8.26202 0C10.7562 0 12.7568 0.71648 14.2637 2.14944C15.7966 3.55726 16.563 5.44274 16.563 7.80586V19.1941C16.563 21.5824 15.7966 23.4804 14.2637 24.8883C12.7568 26.2961 10.7562 27 8.26202 27ZM8.26202 21.6453C8.8336 21.6453 9.27528 21.4567 9.58706 21.0796C9.92481 20.6774 10.0937 20.1369 10.0937 19.4581V7.5419C10.0937 6.86313 9.92481 6.33519 9.58706 5.9581C9.27528 5.55586 8.8336 5.35475 8.26202 5.35475C7.69043 5.35475 7.24875 5.55586 6.93698 5.9581C6.6252 6.33519 6.46931 6.86313 6.46931 7.5419V19.4581C6.46931 20.1369 6.6252 20.6774 6.93698 21.0796C7.24875 21.4567 7.69043 21.6453 8.26202 21.6453Z" fill="#DD5313"/>
<path d="M26.7937 27C24.3255 27 22.3509 26.3338 20.87 25.0014C19.3891 23.6439 18.6486 21.8338 18.6486 19.5712V7.39106C18.6486 5.12849 19.3891 3.331 20.87 1.9986C22.3509 0.666201 24.3255 0 26.7937 0C29.2619 0 31.2365 0.67877 32.7174 2.03631C34.2243 3.39385 34.9778 5.20391 34.9778 7.46648V8.86173C34.9778 8.98743 34.9258 9.10056 34.8219 9.20112C34.7439 9.27654 34.64 9.31424 34.5101 9.31424H28.9761C28.8462 9.31424 28.7293 9.27654 28.6254 9.20112C28.5474 9.10056 28.5085 8.98743 28.5085 8.86173V7.39106C28.5085 6.78771 28.3526 6.29748 28.0408 5.92039C27.729 5.54329 27.3133 5.35475 26.7937 5.35475C26.3001 5.35475 25.8974 5.54329 25.5856 5.92039C25.2738 6.29748 25.1179 6.78771 25.1179 7.39106V19.6089C25.1179 20.2123 25.2738 20.7025 25.5856 21.0796C25.8974 21.4567 26.3001 21.6453 26.7937 21.6453C27.3133 21.6453 27.729 21.4567 28.0408 21.0796C28.3526 20.7025 28.5085 20.2123 28.5085 19.6089V17.1955C28.5085 17.0698 28.4435 17.007 28.3136 17.007H27.3003C27.1704 17.007 27.0535 16.9693 26.9496 16.8939C26.8716 16.7933 26.8327 16.6802 26.8327 16.5545V12.5573C26.8327 12.4316 26.8716 12.331 26.9496 12.2556C27.0535 12.155 27.1704 12.1047 27.3003 12.1047H34.5101C34.64 12.1047 34.7439 12.155 34.8219 12.2556C34.9258 12.331 34.9778 12.4316 34.9778 12.5573V19.5712C34.9778 21.8338 34.2243 23.6439 32.7174 25.0014C31.2365 26.3338 29.2619 27 26.7937 27Z" fill="#DD5313"/>
<path d="M50.0854 0.603351C50.1894 0.402233 50.3842 0.301674 50.67 0.301674H56.0871C56.217 0.301674 56.3209 0.351953 56.3988 0.452512C56.5028 0.527932 56.5547 0.628491 56.5547 0.754189V26.2458C56.5547 26.3715 56.5028 26.4846 56.3988 26.5852C56.3209 26.6606 56.217 26.6983 56.0871 26.6983H50.5531C50.4232 26.6983 50.3063 26.6606 50.2023 26.5852C50.1244 26.4846 50.0854 26.3715 50.0854 26.2458V10.0684C50.0854 9.96788 50.0594 9.9176 50.0075 9.9176C49.9555 9.89246 49.9036 9.9176 49.8516 9.99302L47.1236 14.5936C47.0196 14.7947 46.9417 14.8952 46.8897 14.8952C46.8378 14.8952 46.7468 14.7947 46.6169 14.5936L43.8889 9.99302C43.8369 9.9176 43.785 9.87989 43.733 9.87989C43.6811 9.87989 43.6551 9.93017 43.6551 10.0307V26.2458C43.6551 26.3715 43.6031 26.4846 43.4992 26.5852C43.4213 26.6606 43.3173 26.6983 43.1874 26.6983H37.6534C37.5235 26.6983 37.4066 26.6606 37.3027 26.5852C37.2247 26.4846 37.1858 26.3715 37.1858 26.2458V0.754189C37.1858 0.628491 37.2247 0.527932 37.3027 0.452512C37.4066 0.351953 37.5235 0.301674 37.6534 0.301674H43.1095C43.3693 0.301674 43.5641 0.402233 43.6941 0.603351L46.8118 6.07123C46.8897 6.17179 46.9677 6.17179 47.0456 6.07123L50.0854 0.603351Z" fill="#DD5313"/>
<path d="M70.9204 26.6983C70.6086 26.6983 70.4398 26.5601 70.4138 26.2835L69.9071 23.0028C69.9071 22.8771 69.8292 22.8142 69.6733 22.8142H65.4644C65.3085 22.8142 65.2305 22.8771 65.2305 23.0028L64.7629 26.2835C64.7369 26.5601 64.568 26.6983 64.2562 26.6983H58.7222C58.3845 26.6983 58.2546 26.5349 58.3325 26.2081L63.9834 0.71648C64.0354 0.439942 64.2043 0.301674 64.4901 0.301674H70.8425C71.1283 0.301674 71.2971 0.439942 71.3491 0.71648L76.961 26.2081L77 26.3589C77 26.5852 76.8571 26.6983 76.5713 26.6983H70.9204ZM66.0879 17.7989C66.0879 17.9246 66.1399 17.9874 66.2438 17.9874H68.8549C68.9588 17.9874 69.0108 17.9246 69.0108 17.7989L67.6078 9.20112C67.5818 9.10056 67.5428 9.05028 67.4909 9.05028C67.4389 9.05028 67.4 9.10056 67.374 9.20112L66.0879 17.7989Z" fill="#DD5313"/>
</svg>
