<svg width="18" height="18" viewBox="0 0 18 18" fill="none" xmlns="http://www.w3.org/2000/svg">
<path d="M13.4158 8.17279C14.462 8.02579 15.2675 7.12879 15.2698 6.04204C15.2698 4.97104 14.489 4.08304 13.4653 3.91504" stroke="#A9ABAD" stroke-width="1.5" stroke-linecap="round" stroke-linejoin="round"/>
<path d="M14.7964 10.688C15.8096 10.8395 16.5169 11.1942 16.5169 11.9255C16.5169 12.4287 16.1839 12.7557 15.6454 12.9612" stroke="#A9ABAD" stroke-width="1.5" stroke-linecap="round" stroke-linejoin="round"/>
<path fill-rule="evenodd" clip-rule="evenodd" d="M8.91493 10.998C6.50443 10.998 4.44568 11.3633 4.44568 12.822C4.44568 14.28 6.49168 14.6558 8.91493 14.6558C11.3254 14.6558 13.3834 14.2943 13.3834 12.8348C13.3834 11.3753 11.3382 10.998 8.91493 10.998Z" stroke="#A9ABAD" stroke-width="1.5" stroke-linecap="round" stroke-linejoin="round"/>
<path fill-rule="evenodd" clip-rule="evenodd" d="M8.91495 8.916C10.4967 8.916 11.7792 7.63425 11.7792 6.05175C11.7792 4.47 10.4967 3.1875 8.91495 3.1875C7.3332 3.1875 6.05068 4.47 6.05068 6.05175C6.0447 7.62825 7.31745 8.91075 8.89395 8.916H8.91495Z" stroke="#A9ABAD" stroke-width="1.5" stroke-linecap="round" stroke-linejoin="round"/>
<path d="M4.41357 8.17279C3.36657 8.02579 2.56182 7.12879 2.55957 6.04204C2.55957 4.97104 3.34032 4.08304 4.36407 3.91504" stroke="#A9ABAD" stroke-width="1.5" stroke-linecap="round" stroke-linejoin="round"/>
<path d="M3.03288 10.688C2.01963 10.8395 1.31238 11.1942 1.31238 11.9255C1.31238 12.4287 1.64538 12.7557 2.18388 12.9612" stroke="#A9ABAD" stroke-width="1.5" stroke-linecap="round" stroke-linejoin="round"/>
</svg>
